PathFileType	4	(X/Y/Z)	/Users/itak/Documents/Research/Walk-IL/dataset/trc/00258_00009.trc
DataRate	CameraRate	NumFrames	NumMarkers	Units	OrigDataRate	OrigDataStartFrame	OrigNumFrames
100.000000	100.000000	4	53	mm	100.000000	129	517
Frame#	Time	LPSI			L3			STRN			T10			C7			CLAV			RBAK			LBAK			LSHO			LUPA			LAEL			LAOL			LWTS			LWPS			LFRA			LIFD			LHPS			LHTS			RSHO			RUPA			RAEL			RAOL			RWTS			RWPS			RFRA			RIFD			RHTS			RHPS			RBHD			LFHD			RFHD			LBHD			LHIP			RHIP			RASI			LASI			LKNE			LTHI			LANK			LTIP			LTOE			LMT1			LMT5			LHEE			RKNE			RTHI			RANK			RTIP			RTOE			RMT1			RMT5			RHEE			RPSI			
		X1	Y1	Z1	X2	Y2	Z2	X3	Y3	Z3	X4	Y4	Z4	X5	Y5	Z5	X6	Y6	Z6	X7	Y7	Z7	X8	Y8	Z8	X9	Y9	Z9	X10	Y10	Z10	X11	Y11	Z11	X12	Y12	Z12	X13	Y13	Z13	X14	Y14	Z14	X15	Y15	Z15	X16	Y16	Z16	X17	Y17	Z17	X18	Y18	Z18	X19	Y19	Z19	X20	Y20	Z20	X21	Y21	Z21	X22	Y22	Z22	X23	Y23	Z23	X24	Y24	Z24	X25	Y25	Z25	X26	Y26	Z26	X27	Y27	Z27	X28	Y28	Z28	X29	Y29	Z29	X30	Y30	Z30	X31	Y31	Z31	X32	Y32	Z32	X33	Y33	Z33	X34	Y34	Z34	X35	Y35	Z35	X36	Y36	Z36	X37	Y37	Z37	X38	Y38	Z38	X39	Y39	Z39	X40	Y40	Z40	X41	Y41	Z41	X42	Y42	Z42	X43	Y43	Z43	X44	Y44	Z44	X45	Y45	Z45	X46	Y46	Z46	X47	Y47	Z47	X48	Y48	Z48	X49	Y49	Z49	X50	Y50	Z50	X51	Y51	Z51	X52	Y52	Z52	X53	Y53	Z53	

130	1.29	-1087.14599609375	1037.022827148438	547.2271728515625	-1076.371337890625	1123.854736328125	577.8024291992188	-830.9304809570312	1305.614379882812	509.5086975097656	-1079.9521484375	1249.11767578125	577.158935546875	-1014.095825195312	1507.841430664062	558.7199096679688	-850.94873046875	1425.273315429688	518.9000244140625	-1069.504516601562	1369.833984375	647.9542846679688	-1061.912353515625	1475.679321289062	454.7242126464844	-985.706298828125	1477.436889648438	380.9050903320312	-1033.466918945312	1363.069091796875	305.4903564453125	-1020.411743164062	1152.64697265625	274.4067993164062	-1085.956909179688	1131.1572265625	329.6482238769531	-868.327880859375	962.44921875	346.29638671875	-888.3204345703125	930.2059326171875	270.1658020019531	-974.3005981445312	1053.276977539062	267.2922058105469	-804.1270751953125	790.4432373046875	362.2969665527344	-839.5091552734375	854.8739624023438	282.1894836425781	-800.0091552734375	881.201904296875	330.419189453125	-917.1454467773438	1469.78173828125	708.2066650390625	-922.9759521484375	1408.089111328125	779.392822265625	-950.4332885742188	1132.158813476562	836.9014282226562	-998.1860961914062	1125.583740234375	754.7825317382812	-837.1200561523438	908.774169921875	772.777099609375	-873.3577270507812	899.0255737304688	848.1687622070312	-924.2908935546875	1063.024291992188	846.5576171875	-834.2189331054688	725.346923828125	770.698486328125	-792.8475952148438	789.669677734375	788.2267456054688	-833.044677734375	793.2360229492188	848.5322265625	-949.7809448242188	1643.022216796875	620.7604370117188	-833.06591796875	1717.251220703125	439.9806518554688	-780.7814331054688	1714.247802734375	525.5299682617188	-981.2003173828125	1659.398681640625	484.1030578613281	-1037.4755859375	965.6444091796875	385.1708374023438	-922.6409912109375	1005.1318359375	731.907958984375	-846.2034301757812	1041.725219726562	663.9701538085938	-924.6482543945312	1008.763366699219	396.2821960449219	-1042.21484375	482.5209655761719	434.486572265625	-1032.802124023438	625.8721313476562	403.9825439453125	-1348.666748046875	102.0300598144531	513.4259643554688	-1192.471557617188	303.700439453125	462.5368347167969	-1155.177734375	43.81863403320312	574.9049682617188	-1218.192504882812	57.08320236206055	615.5531005859375	-1234.392456054688	47.31544876098633	503.4828186035156	-1398.766357421875	146.5511932373047	560.1165771484375	-799.0546875	524.4286499023438	657.8112182617188	-827.5848388671875	788.67724609375	712.9456176757812	-880.8231811523438	35.70508193969727	676.0860595703125	-792.9180297851562	400.8656921386719	640.5874633789062	-709.2192993164062	46.69675827026367	545.6046752929688	-777.551513671875	43.62853622436523	530.9749145507812	-770.0591430664062	37.12337493896484	652.5970458984375	-962.5255737304688	36.3162841796875	649.794921875	-1052.150024414062	1036.909912109375	662.7376708984375	
131	1.3	-1080.271850585938	1038.19921875	547.4340209960938	-1069.108520507812	1125.19873046875	578.049560546875	-824.2058715820312	1307.05517578125	507.8836059570312	-1072.522705078125	1250.308959960938	577.443603515625	-1007.123840332031	1509.061767578125	558.7501220703125	-844.3453979492188	1426.706176757812	517.5169067382812	-1061.654174804688	1371.012939453125	648.3680419921875	-1055.778686523438	1477.060180664062	455.165771484375	-980.1737670898438	1479.030883789062	380.7093811035156	-1028.582397460938	1364.749267578125	305.6181640625	-1016.230407714844	1154.297729492188	274.4934692382812	-1081.478881835938	1133.08837890625	330.2263488769531	-864.7501831054688	962.8762817382812	345.1864624023438	-885.6461181640625	930.94384765625	269.1614990234375	-970.704345703125	1054.65234375	267.0282592773438	-803.0440063476562	789.9752807617188	360.7706909179688	-837.7105712890625	854.9061889648438	280.8828125	-797.754150390625	880.5037841796875	328.8443908691406	-908.95654296875	1471.10595703125	707.32958984375	-914.1358642578125	1409.5966796875	778.6723022460938	-941.0751953125	1133.752319335938	836.8475952148438	-989.44140625	1126.990112304688	755.0396728515625	-827.6124877929688	910.6336669921875	771.9026489257812	-863.3841552734375	900.7064208984375	847.4366455078125	-914.7393188476562	1064.540161132812	846.2710571289062	-823.307861328125	726.3555908203125	770.009765625	-782.7921752929688	791.7054443359375	786.9260864257812	-822.7743530273438	794.9983520507812	847.4837646484375	-942.634033203125	1644.206787109375	620.2608032226562	-826.8977661132812	1718.530883789062	438.8670959472656	-774.1622314453125	1715.427368164062	524.1107788085938	-974.8174438476562	1660.721313476562	483.7857055664062	-1031.608642578125	966.5303955078125	385.2106323242188	-914.251953125	1006.532775878906	730.9916381835938	-838.2635498046875	1043.030395507812	662.5699462890625	-918.81396484375	1010.041076660156	395.5739135742188	-1029.494506835938	481.9534606933594	430.5098876953125	-1022.40380859375	625.8815307617188	401.5198669433594	-1344.003540039062	108.7633209228516	513.33642578125	-1182.724609375	306.2054138183594	460.3056640625	-1152.442504882812	43.78189468383789	571.9261474609375	-1214.336059570312	59.86010360717773	613.8380126953125	-1232.198120117188	49.64148712158203	502.3020629882812	-1391.97265625	155.22314453125	560.0454711914062	-797.1255493164062	524.1553344726562	658.2222900390625	-821.5936889648438	789.1453247070312	712.2514038085938	-880.8267211914062	35.48516082763672	676.2383422851562	-791.92431640625	400.5962524414062	641.2532958984375	-709.3348388671875	46.71683883666992	545.7019653320312	-777.5943603515625	43.69795608520508	531.0985717773438	-770.0335083007812	36.99597549438477	652.7295532226562	-962.4744873046875	36.22520446777344	649.9205932617188	-1044.298706054688	1038.497436523438	662.57861328125	
132	1.31	-1073.54345703125	1039.25048828125	547.6265869140625	-1061.976318359375	1126.46435546875	578.31689453125	-817.6062622070312	1308.3369140625	506.1220092773438	-1065.14990234375	1251.447143554688	577.7700805664062	-1000.128967285156	1510.20849609375	558.7739868164062	-837.7870483398438	1427.982666015625	516.0115966796875	-1053.759643554688	1372.144165039062	648.8246459960938	-1049.696899414062	1478.370239257812	455.6419067382812	-974.7512817382812	1480.509765625	380.4895629882812	-1023.893981933594	1366.327758789062	305.7536010742188	-1012.312561035156	1155.846435546875	274.5501098632812	-1077.208618164062	1134.920166015625	330.8146667480469	-861.3873901367188	963.205322265625	343.9223327636719	-883.2332763671875	931.5942993164062	268.0480651855469	-967.37353515625	1055.9365234375	266.7027587890625	-802.2689819335938	789.3941650390625	359.0848388671875	-836.209228515625	854.833984375	279.4499816894531	-795.7339477539062	879.6946411132812	327.1270446777344	-900.6365356445312	1472.322265625	706.3538818359375	-905.1251831054688	1411.020263671875	777.8552856445312	-931.51806640625	1135.277465820312	836.8060913085938	-980.6163940429688	1128.32421875	755.3986206054688	-818.0260620117188	912.4253540039062	770.8612060546875	-853.2322998046875	902.2929077148438	846.59375	-904.960693359375	1065.962524414062	845.9488525390625	-812.46826171875	727.3991088867188	768.995361328125	-772.68603515625	793.6266479492188	785.3532104492188	-812.3630981445312	796.6514282226562	846.2049560546875	-935.486572265625	1645.255004882812	619.6961059570312	-820.755859375	1719.712524414062	437.679443359375	-767.574462890625	1716.498657226562	522.6124267578125	-968.4353637695312	1661.920776367188	483.4203186035156	-1025.950317382812	967.2761840820312	385.2626037597656	-906.055419921875	1007.840698242188	730.0147705078125	-830.3777465820312	1044.192749023438	661.054443359375	-913.1860961914062	1011.187072753906	394.7816467285156	-1016.606018066406	481.4155578613281	426.3430480957031	-1011.978210449219	625.8765869140625	398.8855285644531	-1338.668212890625	115.9076080322266	513.369384765625	-1172.58740234375	308.8388977050781	458.0632934570312	-1148.837036132812	43.95601654052734	567.650146484375	-1209.360229492188	62.73753356933594	611.2610473632812	-1229.570068359375	52.76044845581055	500.3176574707031	-1384.406982421875	163.7505340576172	560.44580078125	-795.3065795898438	523.8768920898438	658.6290283203125	-815.717529296875	789.5384521484375	711.5220947265625	-880.807861328125	35.28216552734375	676.366455078125	-790.9881591796875	400.3392639160156	641.894287109375	-709.42822265625	46.72390365600586	545.8001098632812	-777.6470336914062	43.75495147705078	531.2191162109375	-770.0095825195312	36.86489868164062	652.8494262695312	-962.41357421875	36.14386749267578	650.032470703125	-1036.58642578125	1039.998168945312	662.421630859375	
133	1.32	-1066.955810546875	1040.149291992188	547.7899780273438	-1054.989501953125	1127.63427734375	578.5864868164062	-811.1430053710938	1309.43603515625	504.2310485839844	-1057.851928710938	1252.521118164062	578.1300659179688	-993.1099243164062	1511.266235351562	558.7847290039062	-831.2723999023438	1429.080444335938	514.3861083984375	-1045.831176757812	1373.209106445312	649.3140869140625	-1043.669799804688	1479.594970703125	456.1470642089844	-969.4384155273438	1481.850952148438	380.2425231933594	-1019.413818359375	1367.77490234375	305.901123046875	-1008.674194335938	1157.262573242188	274.5828247070312	-1073.152954101562	1136.629272460938	331.4252624511719	-858.2591552734375	963.4223022460938	342.5006713867188	-881.0892333984375	932.1322631835938	266.8319702148438	-964.325439453125	1057.09912109375	266.3186645507812	-801.727783203125	788.70947265625	357.2339782714844	-834.981689453125	854.6574096679688	277.8977966308594	-793.9072875976562	878.814453125	325.2849731445312	-892.1962280273438	1473.404296875	705.279052734375	-895.95703125	1412.32373046875	776.9346313476562	-921.763671875	1136.69677734375	836.7601318359375	-971.70703125	1129.557250976562	755.8551025390625	-808.3668823242188	914.1124877929688	769.641845703125	-842.9015502929688	903.7484741210938	845.6339721679688	-894.9428100585938	1067.269165039062	845.58251953125	-801.7023315429688	728.4388427734375	767.658935546875	-762.5387573242188	795.3946533203125	783.505615234375	-801.8155517578125	798.1637573242188	844.6907958984375	-928.3304443359375	1646.160278320312	619.0564575195312	-814.6383666992188	1720.779541015625	436.4105834960938	-761.0122680664062	1717.45166015625	521.0271606445312	-962.0528564453125	1662.978271484375	482.9967041015625	-1020.469482421875	967.8760375976562	385.3118896484375	-898.0826416015625	1009.030700683594	728.98681640625	-822.5807495117188	1045.203125	659.432861328125	-907.7415771484375	1012.183349609375	393.9009704589844	-1003.651672363281	480.9756164550781	422.0206909179688	-1001.59716796875	625.9019775390625	396.124267578125	-1332.609497070312	123.3471069335938	513.5413208007812	-1162.164672851562	311.636474609375	455.8557434082031	-1144.287963867188	44.44136047363281	561.8882446289062	-1203.149536132812	65.54774475097656	607.6240844726562	-1226.373657226562	56.75328826904297	497.3755493164062	-1375.978271484375	171.9238586425781	561.4656372070312	-793.5563354492188	523.580078125	659.0284423828125	-809.9591064453125	789.84228515625	710.7614135742188	-880.7711181640625	35.10385131835938	676.4656982421875	-790.0679321289062	400.0787963867188	642.4903564453125	-709.4964599609375	46.71614837646484	545.8944702148438	-777.701904296875	43.79997253417969	531.3299560546875	-769.9849853515625	36.73297882080078	652.9542846679688	-962.3480224609375	36.08267974853516	650.1303100585938	-1029.024047851562	1041.37548828125	662.2503051757812	
